<svg id="logout_1_" data-name="logout(1)" xmlns="http://www.w3.org/2000/svg" width="219.557" height="210.012" viewBox="0 0 219.557 210.012">
  <path id="Path_202" data-name="Path 202" d="M294.909,233.319H156.491a7.159,7.159,0,0,1,0-14.319H294.909a7.159,7.159,0,1,1,0,14.319Zm0,0" transform="translate(-82.511 -121.154)" fill="current"/>
  <path id="Path_203" data-name="Path 203" d="M194.681,224.344a7.1,7.1,0,0,1-5.06-2.1l-38.183-38.183a7.163,7.163,0,0,1,0-10.129L189.62,135.75a7.162,7.162,0,0,1,10.129,10.127L166.625,179l33.125,33.125a7.154,7.154,0,0,1-5.069,12.218Zm0,0" transform="translate(-82.515 -73.996)" fill="current"/>
  <path id="Path_204" data-name="Path 204" d="M105.006,210.344A105.006,105.006,0,1,1,202.737,66.926a7.16,7.16,0,1,1-13.326,5.24,90.682,90.682,0,1,0,0,66.354,7.16,7.16,0,1,1,13.326,5.24A104.469,104.469,0,0,1,105.006,210.344Zm0,0" transform="translate(0 -0.332)" fill="current"/>
</svg>
