<svg xmlns="http://www.w3.org/2000/svg" width="127" height="127" viewBox="0 0 127 127">
  <g id="Group_136" data-name="Group 136" transform="translate(-502 -178)">
    <circle id="Ellipse_6" data-name="Ellipse 6" cx="63.5" cy="63.5" r="63.5" transform="translate(502 178)" fill="#ff643d"/>
    <g id="pencil_1_" data-name="pencil(1)" transform="translate(531.37 207.37)">
      <g id="Group_121" data-name="Group 121">
        <path id="Path_205" data-name="Path 205" d="M7.151,41.578,48.758,0l19.86,19.872L27.436,61.1l-.383.384L0,68.619ZM11.8,42.616,17.485,48.3l28.43-28.43-5.686-5.686ZM62.973,19.873,48.758,5.657l-5.686,5.686L57.287,25.559ZM54.444,28.4l-5.686-5.686-28.43,28.43,5.686,5.686ZM10.551,61.681l11.57-3.057L10,46.508,6.942,58.072Zm-4.8.887-.109.41.411-.109Z" fill="#fff"/>
      </g>
    </g>
  </g>
</svg>
