<svg id="user" xmlns="http://www.w3.org/2000/svg" width="21.094" height="24" viewBox="0 0 21.094 24">
  <g id="Group_110" data-name="Group 110" transform="translate(4.219)">
    <g id="Group_109" data-name="Group 109">
      <path id="Path_194" data-name="Path 194" d="M127.328,0a6.328,6.328,0,1,0,6.328,6.328A6.335,6.335,0,0,0,127.328,0Zm0,11.25a4.922,4.922,0,1,1,4.922-4.922A4.927,4.927,0,0,1,127.328,11.25Z" transform="translate(-121)" fill="current"/>
    </g>
  </g>
  <g id="Group_112" data-name="Group 112" transform="translate(0 14.109)">
    <g id="Group_111" data-name="Group 111">
      <path id="Path_195" data-name="Path 195" d="M43.508,301H39.586A10.164,10.164,0,0,0,31,305.709v5.182H52.094v-5.182A10.166,10.166,0,0,0,43.508,301Zm7.18,8.484H32.406v-3.345a8.752,8.752,0,0,1,7.18-3.733h3.922a8.752,8.752,0,0,1,7.18,3.733v3.345Z" transform="translate(-31 -301)" fill="current"/>
    </g>
  </g>
</svg>
