<svg id="calendar" xmlns="http://www.w3.org/2000/svg" width="25" height="25" viewBox="0 0 25 25">
  <path id="Path_196" data-name="Path 196" d="M22.059,1.471V0H20.588V1.471H16.176V0H14.706V1.471H10.294V0H8.824V1.471H4.412V0H2.941V1.471H0V25H25V1.471ZM2.941,2.941V4.412H4.412V2.941H8.824V4.412h1.471V2.941h4.412V4.412h1.471V2.941h4.412V4.412h1.471V2.941h1.471V5.882H1.471V2.941Zm8.824,4.412v4.412H7.353V7.353Zm5.882,0v4.412H13.235V7.353Zm-5.882,5.882v4.412H7.353V13.235Zm0,5.882v4.412H7.353V19.118Zm1.471,0h4.412v4.412H13.235Zm0-1.471V13.235h4.412v4.412Zm5.882-4.412h4.412v4.412H19.118Zm0-1.471V7.353h4.412v4.412ZM1.471,7.353H5.882v4.412H1.471Zm0,5.882H5.882v4.412H1.471Zm0,5.882H5.882v4.412H1.471Zm17.647,4.412V19.118h4.412v4.412Z" fill="current"/>
  <path id="Path_197" data-name="Path 197" d="M420,420h1.471v1.471H420Z" transform="translate(-399.412 -399.412)" fill="current"/>
  <path id="Path_198" data-name="Path 198" d="M300,420h1.471v1.471H300Z" transform="translate(-285.294 -399.412)" fill="current"/>
  <path id="Path_199" data-name="Path 199" d="M180,420h1.471v1.471H180Z" transform="translate(-171.176 -399.412)" fill="current"/>
</svg>
