<svg id="notification" xmlns="http://www.w3.org/2000/svg" width="23.073" height="25.568" viewBox="0 0 23.073 25.568">
  <g id="Group_119" data-name="Group 119">
    <path id="Path_201" data-name="Path 201" d="M45.766,19.24a14.45,14.45,0,0,1-2.5-8.113V9.788a6.765,6.765,0,0,0-4.494-6.362V0H34.273V3.437a7.028,7.028,0,0,0-4.494,6.608v1.082a14.45,14.45,0,0,1-2.5,8.113l-2.291,3.332H32.85a3.746,3.746,0,0,0,7.34,0h7.866ZM35.771,1.5h1.5V3.086a6.944,6.944,0,0,0-1.409-.008l-.089.01Zm-4.494,9.629V10.045A5.425,5.425,0,0,1,36,4.569a5.244,5.244,0,0,1,5.761,5.219v1.339a16.007,16.007,0,0,0,.968,5.452H30.309A16.006,16.006,0,0,0,31.277,11.127ZM36.52,24.07a2.251,2.251,0,0,1-2.118-1.5h4.237A2.251,2.251,0,0,1,36.52,24.07Zm-8.688-3a20.229,20.229,0,0,0,1.844-3H43.364a20.229,20.229,0,0,0,1.845,3Z" transform="translate(-24.984)" fill="current"/>
  </g>
</svg>
