<svg xmlns="http://www.w3.org/2000/svg" width="503.636" height="280.567" viewBox="0 0 503.636 280.567">
  <defs>
    <style>
      .cls-1 {
        fill: #b3dafe;
      }

      .cls-2 {
        fill: #8ac9fe;
      }

      .cls-3 {
        fill: #fdf6ec;
      }

      .cls-4 {
        fill: #b2f0fb;
      }

      .cls-5 {
        fill: #6dd1e3;
      }

      .cls-6 {
        fill: #ff643d;
      }

      .cls-7 {
        fill: #fc3806;
      }

      .cls-8 {
        fill: #0f0188;
      }
    </style>
  </defs>
  <g id="Group_134" data-name="Group 134" transform="translate(-1081.764 -873.236)">
    <g id="appreciation" transform="translate(1585.4 873.236) rotate(90)">
      <g id="Group_50" data-name="Group 50" transform="translate(94.817 5.747)">
        <path id="Path_160" data-name="Path 160" class="cls-1" d="M45.467,146.157H0V5.613A5.6,5.6,0,0,1,8.587.87l36.88,23.192L82.347.869a5.6,5.6,0,0,1,8.587,4.744V146.157Z" transform="translate(0 0)"/>
      </g>
      <g id="Group_51" data-name="Group 51" transform="translate(168.863 5.748)">
        <path id="Path_161" data-name="Path 161" class="cls-2" d="M16.89,146.157V5.613A5.6,5.6,0,0,0,8.3.871L0,6.1A5.5,5.5,0,0,1,1.543,9.965V146.157Z" transform="translate(0 0)"/>
      </g>
      <g id="Group_52" data-name="Group 52" transform="translate(122.552 18.659)">
        <path id="Path_162" data-name="Path 162" class="cls-3" d="M35.462,133.246V0L17.731,11.148,0,0V133.246Z"/>
      </g>
      <g id="Group_53" data-name="Group 53" transform="translate(5.756 118.38)">
        <path id="Path_163" data-name="Path 163" class="cls-4" d="M269.055,134.525a28.41,28.41,0,0,1-8.235,20.04,26.787,26.787,0,0,0-6.9,25.752,28.5,28.5,0,0,1-20.04,34.71,26.787,26.787,0,0,0-18.852,18.852,28.5,28.5,0,0,1-34.71,20.04,26.786,26.786,0,0,0-25.751,6.9,28.5,28.5,0,0,1-40.08,0,26.787,26.787,0,0,0-25.752-6.9,28.5,28.5,0,0,1-34.71-20.04,26.786,26.786,0,0,0-18.852-18.852,28.5,28.5,0,0,1-20.04-34.71,26.786,26.786,0,0,0-6.9-25.752,28.5,28.5,0,0,1,0-40.079,26.787,26.787,0,0,0,6.9-25.752,28.5,28.5,0,0,1,20.04-34.71A26.786,26.786,0,0,0,54.026,35.174a28.5,28.5,0,0,1,34.71-20.04,26.786,26.786,0,0,0,25.752-6.9,28.5,28.5,0,0,1,40.079,0,26.787,26.787,0,0,0,25.751,6.9,28.5,28.5,0,0,1,34.71,20.04A26.786,26.786,0,0,0,233.88,54.026a28.5,28.5,0,0,1,20.04,34.71,26.786,26.786,0,0,0,6.9,25.752,28.4,28.4,0,0,1,8.235,20.038Z" transform="translate(0 0)"/>
      </g>
      <g id="Group_54" data-name="Group 54" transform="translate(184.096 132.577)">
        <path id="Path_164" data-name="Path 164" class="cls-5" d="M90.715,120.328a28.405,28.405,0,0,1-8.235,20.045,26.781,26.781,0,0,0-6.9,25.747,28.5,28.5,0,0,1-20.037,34.71,26.779,26.779,0,0,0-18.855,18.855,28.5,28.5,0,0,1-34.71,20.037c-.652-.169-1.312-.315-1.964-.438a28.292,28.292,0,0,0,5.518-2.448,28.407,28.407,0,0,0,13.23-17.152c2.533-9.224,14.694-23.633,23.918-26.159,6.984-1.911,12.725-3.91,16.631-10.679s2.009-14,.175-21.008c-2.425-9.254,3.073-19.461,9.8-26.26,10.664-10.774,5.828-26.1-4.376-36.414-4.06-4.1-7.1-8.341-7.894-14.061a26.95,26.95,0,0,1,.2-8.606c.985-5.327,1.4-11.038-.748-16.1-1.574-3.707-4.521-6.4-7.775-8.644-3.788-2.613-8.017-4.494-11.859-7.012-5.671-3.716-10.916-8.3-13.934-14.429a57.206,57.206,0,0,1-3.5-10.275c-1.911-6.983-7.1-12.3-13.865-16.208A28.3,28.3,0,0,0,0,1.37C.66,1.255,1.32,1.1,1.98.933A28.509,28.509,0,0,1,36.69,20.977,26.769,26.769,0,0,0,55.545,39.825a28.5,28.5,0,0,1,20.037,34.71,26.794,26.794,0,0,0,6.9,25.755A28.4,28.4,0,0,1,90.715,120.328Z" transform="translate(0 0)"/>
      </g>
      <g id="Group_55" data-name="Group 55" transform="translate(44.567 157.188)">
        <ellipse id="Ellipse_2" data-name="Ellipse 2" class="cls-6" cx="95.717" cy="95.717" rx="95.717" ry="95.717"/>
      </g>
      <g id="Group_56" data-name="Group 56" transform="translate(83.625 157.193)">
        <path id="Path_165" data-name="Path 165" class="cls-7" d="M152.377,95.711A95.726,95.726,0,0,0,0,18.564,95.731,95.731,0,0,1,99.579,181.293,95.726,95.726,0,0,0,152.377,95.711Z" transform="translate(0 0)"/>
      </g>
      <g id="Group_57" data-name="Group 57" transform="translate(0 0)">
        <path id="Path_166" data-name="Path 166" class="cls-8" d="M101.472,202.943A101.472,101.472,0,1,1,181.025,38.475,5.755,5.755,0,1,1,172,45.627a89.569,89.569,0,1,0,12.632,21.48,5.756,5.756,0,1,1,10.637-4.4,101.526,101.526,0,0,1-93.8,140.238Z" transform="translate(38.812 151.433)"/>
        <path id="Path_167" data-name="Path 167" class="cls-8" d="M280.567,252.905a34.048,34.048,0,0,1-9.9,24.087,20.98,20.98,0,0,0-5.425,20.246,34.257,34.257,0,0,1-24.087,41.72,20.977,20.977,0,0,0-14.821,14.821,34.256,34.256,0,0,1-41.719,24.086,20.98,20.98,0,0,0-20.245,5.425,34.259,34.259,0,0,1-48.176,0,20.978,20.978,0,0,0-20.245-5.424,34.257,34.257,0,0,1-41.719-24.087A20.98,20.98,0,0,0,39.41,338.958a34.258,34.258,0,0,1-24.087-41.72A20.979,20.979,0,0,0,9.9,276.992a34.257,34.257,0,0,1,0-48.174,20.979,20.979,0,0,0,5.425-20.246,34.257,34.257,0,0,1,24.087-41.72A20.98,20.98,0,0,0,54.231,152.03,34.269,34.269,0,0,1,89.06,126.867V93.994a5.756,5.756,0,1,1,11.511,0v34.63a20.95,20.95,0,0,0,15.625-6.105c.2-.194.4-.377.6-.566V21.837l-16.225-10.2V67.11a5.756,5.756,0,1,1-11.511,0V11.359a11.36,11.36,0,0,1,17.406-9.616L130.872,17.09l9.411,5.919,9.41-5.917L174.1,1.744a11.359,11.359,0,0,1,17.406,9.616V126.868a34.269,34.269,0,0,1,34.829,25.163,20.981,20.981,0,0,0,14.821,14.821,34.258,34.258,0,0,1,24.087,41.72,20.98,20.98,0,0,0,5.425,20.246,34.041,34.041,0,0,1,9.9,24.087ZM152.259,29.077l-8.911,5.6a5.758,5.758,0,0,1-6.128,0l-8.911-5.6v85.7a34.387,34.387,0,0,1,23.951,0Zm27.736-17.442-16.225,10.2V121.953c.2.189.4.372.6.566a20.946,20.946,0,0,0,15.625,6.1Zm82.49,225.278a32.389,32.389,0,0,1-8.375-31.258,22.747,22.747,0,0,0-15.993-27.7,32.391,32.391,0,0,1-22.882-22.882,22.747,22.747,0,0,0-27.7-15.993,32.386,32.386,0,0,1-31.258-8.375,22.746,22.746,0,0,0-31.985,0,32.363,32.363,0,0,1-22.85,9.467,33.2,33.2,0,0,1-8.407-1.091,22.745,22.745,0,0,0-27.7,15.992A32.391,32.391,0,0,1,42.45,177.954a22.746,22.746,0,0,0-15.992,27.7,32.392,32.392,0,0,1-8.376,31.258,22.746,22.746,0,0,0,0,31.985,32.39,32.39,0,0,1,8.375,31.258,22.747,22.747,0,0,0,15.992,27.7,32.389,32.389,0,0,1,22.882,22.882,22.747,22.747,0,0,0,27.7,15.993,32.387,32.387,0,0,1,31.258,8.375,22.744,22.744,0,0,0,31.985,0,32.39,32.39,0,0,1,31.258-8.375,22.746,22.746,0,0,0,27.7-15.992,32.389,32.389,0,0,1,22.882-22.882,22.746,22.746,0,0,0,15.992-27.7,32.392,32.392,0,0,1,8.376-31.258,22.748,22.748,0,0,0,0-31.986Z"/>
      </g>
    </g>
    <g id="appreciation-2" data-name="appreciation" transform="translate(1474.952 873.236) rotate(90)">
      <g id="Group_50-2" data-name="Group 50" transform="translate(94.817 241.285)">
        <path id="Path_160-2" data-name="Path 160" class="cls-1" d="M45.467,0H0V140.543a5.6,5.6,0,0,0,8.587,4.744l36.88-23.192,36.88,23.193a5.6,5.6,0,0,0,8.587-4.744V0Z" transform="translate(0 0)"/>
      </g>
      <g id="Group_51-2" data-name="Group 51" transform="translate(168.863 241.284)">
        <path id="Path_161-2" data-name="Path 161" class="cls-2" d="M16.89,0V140.543A5.6,5.6,0,0,1,8.3,145.286L0,140.06a5.5,5.5,0,0,0,1.543-3.868V0Z"/>
      </g>
      <g id="Group_52-2" data-name="Group 52" transform="translate(122.552 241.284)">
        <path id="Path_162-2" data-name="Path 162" class="cls-3" d="M35.462,0V133.246L17.731,122.1,0,133.246V0Z"/>
      </g>
      <g id="Group_53-2" data-name="Group 53" transform="translate(5.756 5.756)">
        <path id="Path_163-2" data-name="Path 163" class="cls-4" d="M269.055,134.528a28.41,28.41,0,0,0-8.235-20.04,26.786,26.786,0,0,1-6.9-25.751,28.5,28.5,0,0,0-20.039-34.71,26.787,26.787,0,0,1-18.852-18.852,28.5,28.5,0,0,0-34.71-20.04,26.786,26.786,0,0,1-25.751-6.9,28.5,28.5,0,0,0-40.08,0,26.787,26.787,0,0,1-25.752,6.9,28.5,28.5,0,0,0-34.71,20.04A26.786,26.786,0,0,1,35.174,54.026a28.5,28.5,0,0,0-20.04,34.71,26.786,26.786,0,0,1-6.9,25.751,28.5,28.5,0,0,0,0,40.079,26.787,26.787,0,0,1,6.9,25.752,28.5,28.5,0,0,0,20.04,34.71,26.786,26.786,0,0,1,18.852,18.852,28.5,28.5,0,0,0,34.71,20.04,26.786,26.786,0,0,1,25.752,6.9,28.5,28.5,0,0,0,40.079,0,26.786,26.786,0,0,1,25.751-6.9,28.5,28.5,0,0,0,34.71-20.04,26.786,26.786,0,0,1,18.852-18.852,28.5,28.5,0,0,0,20.04-34.71,26.786,26.786,0,0,1,6.9-25.752A28.4,28.4,0,0,0,269.055,134.528Z"/>
      </g>
      <g id="Group_54-2" data-name="Group 54" transform="translate(184.096 19.955)">
        <path id="Path_164-2" data-name="Path 164" class="cls-5" d="M90.715,120.33a28.405,28.405,0,0,0-8.235-20.045,26.78,26.78,0,0,1-6.9-25.747,28.5,28.5,0,0,0-20.037-34.71A26.779,26.779,0,0,1,36.688,20.973,28.5,28.5,0,0,0,1.978.936C1.326,1.1.666,1.25.014,1.373A28.294,28.294,0,0,1,5.532,3.822a28.407,28.407,0,0,1,13.23,17.152C21.294,30.2,33.455,44.607,42.68,47.132c6.984,1.911,12.725,3.91,16.631,10.679s2.009,14,.175,21.008c-2.425,9.255,3.073,19.461,9.8,26.26,10.664,10.774,5.828,26.1-4.376,36.414-4.06,4.1-7.1,8.341-7.894,14.061a26.953,26.953,0,0,0,.2,8.606c.985,5.327,1.4,11.038-.748,16.1-1.574,3.707-4.521,6.4-7.775,8.644-3.788,2.613-8.017,4.494-11.859,7.012-5.671,3.716-10.915,8.3-13.934,14.429a57.218,57.218,0,0,0-3.5,10.275c-1.911,6.983-7.1,12.3-13.864,16.208A28.3,28.3,0,0,1,0,239.287c.66.115,1.32.269,1.98.437A28.509,28.509,0,0,0,36.69,219.68a26.769,26.769,0,0,1,18.855-18.848,28.5,28.5,0,0,0,20.037-34.71,26.794,26.794,0,0,1,6.9-25.755A28.4,28.4,0,0,0,90.715,120.33Z" transform="translate(0 0)"/>
      </g>
      <g id="Group_55-2" data-name="Group 55" transform="translate(44.567 44.567)">
        <ellipse id="Ellipse_2-2" data-name="Ellipse 2" class="cls-6" cx="95.717" cy="95.717" rx="95.717" ry="95.717"/>
      </g>
      <g id="Group_56-2" data-name="Group 56" transform="translate(83.625 54.703)">
        <path id="Path_165-2" data-name="Path 165" class="cls-7" d="M152.377,85.581A95.726,95.726,0,0,1,0,162.729,95.731,95.731,0,0,0,99.579,0,95.726,95.726,0,0,1,152.377,85.581Z"/>
      </g>
      <g id="Group_57-2" data-name="Group 57" transform="translate(0 0)">
        <path id="Path_166-2" data-name="Path 166" class="cls-8" d="M101.472,0a101.472,101.472,0,1,0,79.553,164.468,5.755,5.755,0,1,0-9.02-7.152,89.568,89.568,0,1,1,12.632-21.48,5.756,5.756,0,1,0,10.637,4.4A101.526,101.526,0,0,0,101.472,0Z" transform="translate(38.812 38.812)"/>
        <path id="Path_167-2" data-name="Path 167" class="cls-8" d="M280.567,140.284a34.048,34.048,0,0,0-9.9-24.087,20.98,20.98,0,0,1-5.425-20.246,34.256,34.256,0,0,0-24.087-41.72,20.977,20.977,0,0,1-14.821-14.821,34.256,34.256,0,0,0-41.719-24.086A20.979,20.979,0,0,1,164.372,9.9a34.259,34.259,0,0,0-48.176,0,20.978,20.978,0,0,1-20.245,5.424A34.257,34.257,0,0,0,54.231,39.409,20.98,20.98,0,0,1,39.41,54.231a34.258,34.258,0,0,0-24.087,41.72A20.979,20.979,0,0,1,9.9,116.2a34.257,34.257,0,0,0,0,48.174,20.979,20.979,0,0,1,5.425,20.246,34.257,34.257,0,0,0,24.087,41.72,20.98,20.98,0,0,1,14.821,14.821A34.269,34.269,0,0,0,89.06,266.322v32.873a5.756,5.756,0,1,0,11.511,0v-34.63A20.95,20.95,0,0,1,116.2,270.67c.2.194.4.377.6.566V371.351l-16.225,10.2V326.079a5.756,5.756,0,0,0-11.511,0V381.83a11.36,11.36,0,0,0,17.406,9.616L130.872,376.1l9.411-5.919,9.41,5.917L174.1,391.444a11.359,11.359,0,0,0,17.406-9.616V266.321a34.269,34.269,0,0,0,34.829-25.163,20.981,20.981,0,0,1,14.821-14.821,34.258,34.258,0,0,0,24.087-41.72,20.98,20.98,0,0,1,5.425-20.246,34.041,34.041,0,0,0,9.9-24.087ZM152.259,364.111l-8.911-5.6a5.758,5.758,0,0,0-6.128,0l-8.911,5.6v-85.7a34.387,34.387,0,0,0,23.951,0Zm27.736,17.442-16.225-10.2V271.235c.2-.189.4-.372.6-.566a20.946,20.946,0,0,1,15.625-6.1Zm82.49-225.277a32.389,32.389,0,0,0-8.375,31.258,22.747,22.747,0,0,1-15.993,27.7,32.391,32.391,0,0,0-22.882,22.882,22.747,22.747,0,0,1-27.7,15.993,32.387,32.387,0,0,0-31.258,8.375,22.746,22.746,0,0,1-31.985,0,32.363,32.363,0,0,0-22.85-9.467,33.2,33.2,0,0,0-8.407,1.091,22.745,22.745,0,0,1-27.7-15.992A32.391,32.391,0,0,0,42.45,215.234a22.746,22.746,0,0,1-15.992-27.7,32.392,32.392,0,0,0-8.376-31.258,22.746,22.746,0,0,1,0-31.985,32.39,32.39,0,0,0,8.375-31.258,22.747,22.747,0,0,1,15.992-27.7A32.388,32.388,0,0,0,65.333,42.45a22.747,22.747,0,0,1,27.7-15.993,32.387,32.387,0,0,0,31.258-8.375,22.744,22.744,0,0,1,31.985,0,32.39,32.39,0,0,0,31.258,8.375,22.746,22.746,0,0,1,27.7,15.992,32.389,32.389,0,0,0,22.882,22.882,22.746,22.746,0,0,1,15.992,27.7,32.392,32.392,0,0,0,8.376,31.258,22.748,22.748,0,0,1,0,31.986Z"/>
      </g>
    </g>
  </g>
</svg>
