<svg xmlns="http://www.w3.org/2000/svg" width="267.841" height="175.082" viewBox="0 0 267.841 175.082">
  <g id="menu" transform="translate(0 -88.658)">
    <g id="Group_58" data-name="Group 58" transform="translate(69.653 108.178)">
      <ellipse id="Ellipse_3" data-name="Ellipse 3" cx="59.292" cy="59.292" rx="59.292" ry="59.292" transform="matrix(0.16, -0.987, 0.987, 0.16, 0, 117.043)" fill="#b2f0fb"/>
    </g>
    <g id="Group_59" data-name="Group 59" transform="translate(0 88.658)">
      <path id="Path_168" data-name="Path 168" d="M44.66,93.534a5.232,5.232,0,0,0-5.231,5.231V126.74a3.452,3.452,0,0,1-3.443,3.454H30.177V98.765a5.231,5.231,0,1,0-10.463,0v31.429H13.905a3.453,3.453,0,0,1-3.443-3.454V98.765A5.231,5.231,0,1,0,0,98.765V126.74a13.927,13.927,0,0,0,13.905,13.917h5.809v26.07H13.693a5.232,5.232,0,0,0-5.231,5.231V247.03a16.484,16.484,0,0,0,32.969,0V171.958a5.232,5.232,0,0,0-5.231-5.231H30.177v-26.07h5.809A13.927,13.927,0,0,0,49.892,126.74V98.765a5.231,5.231,0,0,0-5.231-5.231ZM30.968,247.03a6.022,6.022,0,0,1-12.043,0V177.189H30.967V247.03Z" transform="translate(0 -90.983)" fill="#020288"/>
      <path id="Path_169" data-name="Path 169" d="M463.62,93.534h-9.411a5.231,5.231,0,0,0-5.231,5.231V247.03a16.484,16.484,0,0,0,32.969,0V111.86A18.348,18.348,0,0,0,463.62,93.534ZM459.44,104h4.18a7.873,7.873,0,0,1,7.864,7.864v54.867H459.44ZM471.484,247.03a6.022,6.022,0,0,1-12.044,0V177.189h12.044Z" transform="translate(-214.105 -90.983)" fill="#020288"/>
      <path id="Path_170" data-name="Path 170" d="M183.421,88.658A87.541,87.541,0,1,0,270.962,176.2,87.64,87.64,0,0,0,183.421,88.658Zm0,164.62A77.079,77.079,0,1,1,260.5,176.2,77.166,77.166,0,0,1,183.421,253.278Z" transform="translate(-45.723 -88.658)" fill="#020288"/>
      <path id="Path_171" data-name="Path 171" d="M246.461,203.391c-5.637,0-10.332,3.035-13.5,5.887-3.122-2.864-7.8-5.887-13.628-5.887a19.9,19.9,0,0,0-19.668,19.037,22.216,22.216,0,0,0,4.007,13.835c4.326,6.564,22.725,18.9,26.369,21.305a5.233,5.233,0,0,0,5.765,0c3.632-2.4,21.968-14.693,26.32-21.311a22.249,22.249,0,0,0,4-13.831A19.9,19.9,0,0,0,246.461,203.391Zm6.924,27.119c-2.078,3.16-12.378,10.874-20.461,16.391-8.114-5.536-18.452-13.264-20.514-16.395a11.636,11.636,0,0,1-2.3-7.52,9.553,9.553,0,0,1,9.221-9.132c4.139,0,8.059,4.444,9.207,6.135a5.231,5.231,0,0,0,8.637.118c.929-1.32,5.229-6.252,9.284-6.252a9.554,9.554,0,0,1,9.221,9.133A11.667,11.667,0,0,1,253.384,230.51Z" transform="translate(-95.2 -143.371)" fill="#020288"/>
    </g>
  </g>
</svg>
