<svg xmlns="http://www.w3.org/2000/svg" width="259.218" height="242.922" viewBox="0 0 259.218 242.922">
  <g id="open-24-hours" transform="translate(0 -16.094)">
    <g id="Group_60" data-name="Group 60" transform="translate(49.09 57.035)">
      <circle id="Ellipse_4" data-name="Ellipse 4" cx="80.52" cy="80.52" r="80.52" fill="#b2f0fb"/>
    </g>
    <g id="Group_61" data-name="Group 61" transform="translate(0 16.094)">
      <path id="Path_172" data-name="Path 172" d="M244.847,279.765a5.06,5.06,0,0,0-5.93,4.013A111.35,111.35,0,0,1,20.985,287.06l1.321,1.321a5.063,5.063,0,0,0,7.16-7.159L19.054,270.809a5.062,5.062,0,0,0-7.16,0L1.483,281.222a5.063,5.063,0,0,0,7.16,7.159l1.874-1.874a121.474,121.474,0,0,0,238.343-.812A5.063,5.063,0,0,0,244.847,279.765Z" transform="translate(0 -141.118)" fill="#020288"/>
      <path id="Path_173" data-name="Path 173" d="M267.745,111.753a5.062,5.062,0,0,0-7.16,0l-1.874,1.874a121.474,121.474,0,0,0-238.343.813,5.063,5.063,0,1,0,9.943,1.916,111.35,111.35,0,0,1,217.933-3.282l-1.321-1.321a5.063,5.063,0,0,0-7.16,7.159l10.411,10.412a5.062,5.062,0,0,0,7.16,0l10.411-10.412a5.061,5.061,0,0,0,0-7.16Z" transform="translate(-10.01 -16.094)" fill="#020288"/>
      <path id="Path_174" data-name="Path 174" d="M263.438,256.2a5.057,5.057,0,0,0,6.575-2.834l14.011-35.227a5.063,5.063,0,1,0-9.409-3.742L260.6,249.628A5.063,5.063,0,0,0,263.438,256.2Z" transform="translate(-128.487 -112.425)" fill="#020288"/>
      <path id="Path_175" data-name="Path 175" d="M318.126,221.337H329.75l-12.365,28.127a5.063,5.063,0,1,0,9.27,4.076l15.486-35.227a5.063,5.063,0,0,0-4.634-7.1h-19.38a5.062,5.062,0,1,0,0,10.125Z" transform="translate(-154.564 -112.427)" fill="#020288"/>
      <path id="Path_176" data-name="Path 176" d="M194.372,243.673a5.062,5.062,0,0,0,4.36,2.489h12.519c-.014,1.866-.029,3.654-.043,5.291a5.064,5.064,0,0,0,5.019,5.106h.045a5.063,5.063,0,0,0,5.062-5.019c.012-1.325.027-3.205.044-5.4a5.063,5.063,0,0,0,.067-10.065c.046-8.241.063-16.537-.04-17.78a7.558,7.558,0,0,0-5.066-6.79c-2.8-.867-5.75.179-7.885,2.8-2,2.459-10.566,17.851-14.154,24.354A5.061,5.061,0,0,0,194.372,243.673Zm16.977-14.707c-.008,2.187-.018,4.593-.032,7.07h-3.974C208.75,233.529,210.118,231.114,211.349,228.966Z" transform="translate(-95.617 -112.421)" fill="#020288"/>
      <path id="Path_177" data-name="Path 177" d="M165.137,256.49a5.063,5.063,0,0,0-.062-10.125h-.065c-2.772.034-5.684.06-8.315.073,1.822-2.466,4.16-5.7,7.114-9.919a27.805,27.805,0,0,0,4.529-9.407,10.606,10.606,0,0,0,.305-2.506,14.078,14.078,0,0,0-27.89-2.723,5.063,5.063,0,0,0,9.936,1.952,3.952,3.952,0,0,1,7.82.514l-.089.693a18.417,18.417,0,0,1-2.907,5.671c-5.568,7.955-8.889,12.3-10.673,14.639-2.288,3-3.548,4.646-2.706,7.386a5.285,5.285,0,0,0,3.387,3.438c.676.225,1.217.405,8.131.405,2.715,0,6.412-.028,11.485-.092Z" transform="translate(-69.444 -112.089)" fill="#020288"/>
    </g>
  </g>
</svg>
